<svg xmlns="http://www.w3.org/2000/svg" width="16" height="16" viewBox="0 0 16 16">
    <g fill="none" fill-rule="evenodd">
        <rect width="10" height="2" x="3" y="1" fill="#6E6E6E"/>
        <path fill="#6E6E6E" d="M4,15 L4,5 L8.45714286,5 C9.71428571,5 10.7,5.37142857 11.3428571,6 C11.8714286,6.54285714 12.1714286,7.28571429 12.1714286,8.15714286 L12.1714286,8.18571429 C12.1714286,9.82857143 11.1857143,10.8142857 9.8,11.2142857 L12.5,15 L10.4142857,15 L7.95714286,11.5142857 L5.75714286,11.5142857 L5.75714286,15 L4,15 Z M5.75714286,9.95714286 L8.32857143,9.95714286 C9.58571429,9.95714286 10.3857143,9.3 10.3857143,8.28571429 L10.3857143,8.25714286 C10.3857143,7.18571429 9.61428571,6.6 8.31428571,6.6 L5.75714286,6.6 L5.75714286,9.95714286 Z"/>
    </g>
</svg>